# xmcd CD database file
#
# Track frame offsets:
#	150
#	16544
#	26394
#	40239
#	55349
#	67044
#	77189
#	94673
#	110793
#	136125
#
# Disc length: 1968 seconds
#
# Revision: 0
# Processed by: cddbd v1.5.2PL0 Copyright (c) Steve Scherf et al.
# Submitted via: CDex 1.70beta2
#
DISCID=7b07ae0a
DTITLE=Various Artist - Coffee Break Jazz Vocal Disc2
DYEAR=1900
DGENRE=Jazz
TTITLE0=Patricia Barber - Easy To Love
TTITLE1=Blossom Dearie - When Sunny Gets Blue
TTITLE2=Julie London - Love For Sale
TTITLE3=Peggy Lee - Fever
TTITLE4=Nancy Wilson - You'd Be So Nice To Come Home To
TTITLE5=Lena Horne - Wives And Lovers
TTITLE6=Mariena Shaw - The Feeling's Good
TTITLE7=Carmen McRae - Music
TTITLE8=Dianne Reeves - Harvest Time
TTITLE9=June Christy - When You Wish Upon A Star
EXTD=
EXTT0=
EXTT1=
EXTT2=
EXTT3=
EXTT4=
EXTT5=
EXTT6=
EXTT7=
EXTT8=
EXTT9=
PLAYORDER=
